# xmcd CD database file
#
# Track frame offsets:
#	150
#	13824
#	32594
#	43119
#	60086
#	72764
#	88720
#	101922
#	113725
#	129100
#	144697
#	160193
#	171996
#	184454
#	200861
#	211024
#	223652
#	239701
#	249983
#
# Disc length: 4607 seconds
#
# Revision: 0
# Processed by: cddbd v1.5.2PL0 Copyright (c) Steve Scherf et al.
# Submitted via: CDex 1.51
#
DISCID=1611fd13
DTITLE=Dinah Washington - Complete Don Costa Recordings
DYEAR=1962
DGENRE=Jazz
TTITLE0=Me and The One I Love
TTITLE1=There Must Be A Way
TTITLE2=Take Me In Your Arms
TTITLE3=What's New
TTITLE4=Love Is The Sweetest Thing
TTITLE5=These Foolish Things
TTITLE6=That's My Desire
TTITLE7=The More I See You
TTITLE8=I Used To Love You (But It's All Over Now)
TTITLE9=Drinking Again
TTITLE10=Is You Is Or Is You Ain't My Baby
TTITLE11=Destination Moon
TTITLE12=Take Your Shoes Off, Baby
TTITLE13=Where Are You (Alt)
TTITLE14=You're Nobody Til Somebody Loves You( (Alt)
TTITLE15=You're Nobody Til Somebody Loves You
TTITLE16=Drinking Again
TTITLE17=Where Are You 
TTITLE18=Medley: Ill Wind For All We Know I Could  Have Told You So Smoke Gets In Your Eyes
EXTD=YEAR: 1962
EXTT0=
EXTT1=
EXTT2=
EXTT3=
EXTT4=
EXTT5=
EXTT6=
EXTT7=
EXTT8=
EXTT9=
EXTT10=
EXTT11=
EXTT12=
EXTT13=
EXTT14=
EXTT15=
EXTT16=
EXTT17=
EXTT18=
PLAYORDER=
